<?xml version="1.0" encoding="UTF-8" standalone="no"?><svg xmlns="http://www.w3.org/2000/svg" xmlns:xlink="http://www.w3.org/1999/xlink" contentScriptType="text/ecmascript" fill="#000000" width="4279.5" zoomAndPan="magnify" contentStyleType="text/css" viewBox="0.0 0.0 4279.5 4398.8" height="4398.8" preserveAspectRatio="xMidYMid meet" version="1"><defs><clipPath id="a"><path d="M 0 2375 L 2989 2375 L 2989 4398.769531 L 0 4398.769531 Z M 0 2375"/></clipPath><clipPath id="b"><path d="M 3136 864 L 4279.5 864 L 4279.5 4084 L 3136 4084 Z M 3136 864"/></clipPath></defs><g><g id="change1_1"><path fill="#1800ad" d="M 2158.746094 1026.589844 L 2250.996094 717.597656 C 2082.789062 699.136719 1909.429688 705.9375 1739.316406 738.214844 C 1513.050781 780.796875 1292.761719 872.226562 1094.710938 1004.082031 C 896.382812 1136.207031 721.664062 1310.375 586.285156 1515.5 C 450.363281 1720.324219 353.78125 1956.082031 307.113281 2205.414062 C 314.441406 1952.023438 373.582031 1695.902344 482.105469 1458.261719 C 590.359375 1220.054688 748.523438 1000.574219 946.578125 818.253906 C 1144.359375 635.933594 1381.199219 488.886719 1642.1875 395.269531 C 1877.140625 310.914062 2129.179688 266.953125 2384.480469 269.136719 L 2464.777344 0.00390625 L 3200.816406 778.097656 L 2158.746094 1026.589844"/></g><g id="change2_1" clip-path="url(#a)"><path fill="#1800ad" d="M 2988.671875 4167.742188 C 2765.382812 4288.199219 2514.425781 4364.96875 2253.988281 4389.660156 C 1993.792969 4414.898438 1724.667969 4387.769531 1467.75 4307.460938 C 1210.820312 4227.421875 965.292969 4095.839844 753.40625 3916.511719 C 562.953125 3755.359375 399.089844 3558.667969 273.203125 3336.738281 L 0 3401.851562 L 305.757812 2375.238281 L 1042.078125 3153.339844 L 728.449219 3228.21875 C 796.542969 3383.128906 888.792969 3529.628906 1001.917969 3660.949219 C 1151.949219 3835.390625 1341.320312 3980.8125 1554.832031 4086.347656 C 1768.082031 4192.160156 2006.277344 4256.179688 2251.808594 4270.832031 C 2497.0625 4286.03125 2749.375 4251.839844 2988.671875 4167.742188"/></g><g id="change3_1" clip-path="url(#b)"><path fill="#1800ad" d="M 4247.496094 2925.441406 C 4203.019531 3170.972656 4115.121094 3411.351562 3985.421875 3631.371094 L 4178.578125 3835.390625 L 3136.53125 4083.902344 L 3442.265625 3057.300781 L 3663.933594 3291.429688 C 3763.78125 3154.96875 3844.617188 3001.679688 3901.878906 2838.089844 C 3977.835938 2621.039062 4009.289062 2384.46875 3993.851562 2146.8125 C 3978.648438 1909.152344 3915.164062 1670.679688 3805 1450.929688 C 3695.675781 1230.890625 3539.960938 1029.308594 3347.332031 864.085938 C 3563.273438 997.304688 3755.378906 1176.359375 3906.738281 1389.335938 C 4058.960938 1602.3125 4169.914062 1848.921875 4228.800781 2111.539062 C 4287.925781 2373.890625 4296.878906 2652.519531 4247.496094 2925.441406"/></g></g></svg>