<?xml version="1.0" encoding="UTF-8" standalone="no"?><svg xmlns="http://www.w3.org/2000/svg" xmlns:xlink="http://www.w3.org/1999/xlink" contentScriptType="text/ecmascript" fill="#1800ad" width="790.3" zoomAndPan="magnify" contentStyleType="text/css" viewBox="-1.1 -4.2 790.3 680.5" height="680.5" preserveAspectRatio="xMidYMid meet" version="1"><g id="change1_1"><path fill="inherit" d="M 547.675781 355.171875 C 520.9375 355.171875 499.269531 333.5 499.269531 306.769531 C 499.269531 280.039062 520.9375 258.363281 547.675781 258.363281 C 574.40625 258.363281 596.078125 280.039062 596.078125 306.769531 C 596.078125 333.5 574.40625 355.171875 547.675781 355.171875 Z M 386.328125 355.171875 C 359.59375 355.171875 337.921875 333.5 337.921875 306.769531 C 337.921875 280.039062 359.59375 258.363281 386.328125 258.363281 C 413.0625 258.363281 434.730469 280.039062 434.730469 306.769531 C 434.730469 333.5 413.0625 355.171875 386.328125 355.171875 Z M 224.980469 355.171875 C 198.246094 355.171875 176.574219 333.5 176.574219 306.769531 C 176.574219 280.039062 198.246094 258.363281 224.980469 258.363281 C 251.714844 258.363281 273.386719 280.039062 273.386719 306.769531 C 273.386719 333.5 251.714844 355.171875 224.980469 355.171875 Z M 399.007812 0.09375 C 182.003906 -4.183594 3.378906 129.539062 0.046875 298.765625 C -1.113281 357.597656 19.082031 412.972656 55.023438 460.367188 L 55.011719 460.367188 C 116.820312 539.773438 49.359375 676.28125 49.359375 676.28125 L 248.53125 590.503906 C 291.441406 604.0625 338.066406 611.960938 386.933594 612.925781 C 603.933594 617.199219 782.558594 483.484375 785.890625 314.253906 C 789.230469 145.023438 616.015625 4.375 399.007812 0.09375" fill-rule="evenodd"/></g></svg>