<?xml version="1.0" encoding="UTF-8" standalone="no"?><svg xmlns="http://www.w3.org/2000/svg" xmlns:xlink="http://www.w3.org/1999/xlink" contentScriptType="text/ecmascript" fill="#000000" width="100" zoomAndPan="magnify" contentStyleType="text/css" viewBox="0.0 19.6 100.0 60.7" height="60.7" preserveAspectRatio="xMidYMid meet" version="1"><g fill="#1800ad" id="change1_1"><path fill="inherit" d="M 50 68.070312 C 40.015625 68.070312 31.921875 59.972656 31.921875 49.992188 C 31.921875 40.007812 40.015625 31.914062 50 31.914062 C 59.984375 31.914062 68.078125 40.007812 68.078125 49.992188 C 68.078125 59.972656 59.984375 68.070312 50 68.070312 Z M 50 20.984375 C 50 20.984375 22.417969 19.640625 0 50 C 22.417969 80.359375 50 79.015625 50 79.015625 C 50 79.015625 77.582031 80.359375 100 50 C 77.582031 19.640625 50 20.984375 50 20.984375"/><path fill="inherit" d="M 59.0625 50 C 59.0625 55.003906 55.003906 59.0625 50 59.0625 C 44.996094 59.0625 40.9375 55.003906 40.9375 50 C 40.9375 44.996094 44.996094 40.9375 50 40.9375 C 55.003906 40.9375 59.0625 44.996094 59.0625 50"/></g></svg>